<svg xmlns="http://www.w3.org/2000/svg" xmlns:xlink="http://www.w3.org/1999/xlink" width="1110" height="530" viewBox="0 0 1110 530">
  <defs>
    <clipPath id="clip-iFour_White_Logo_SVG_">
      <rect width="1110" height="530"/>
    </clipPath>
  </defs>
  <g id="iFour_White_Logo_SVG_" data-name="iFour White Logo (SVG)" clip-path="url(#clip-iFour_White_Logo_SVG_)">
    <rect width="1110" height="530" fill="rgba(54,54,54,0)"/>
    <path id="Path_1559" data-name="Path 1559" d="M39.66,208.639V443.4h64.45V208.25a61.442,61.442,0,0,1-64.45.389Z" transform="translate(59.238 -6.715)" fill="#fff"/>
    <path id="Path_1560" data-name="Path 1560" d="M60.885,218.71A12.245,12.245,0,1,0,48.64,206.465,12.245,12.245,0,0,0,60.885,218.71Z" transform="translate(69.686 -23.038)" fill="#35f2bd"/>
    <path id="Path_1561" data-name="Path 1561" d="M181.789,250.08a108.473,108.473,0,0,1,1.363-16.853,50.518,50.518,0,0,1,5.236-15.923,29.834,29.834,0,0,1,23.8-15.966,44.957,44.957,0,0,1-1.3-46.688c-14.928.433-27.606,2.964-37.774,7.767a71.156,71.156,0,0,0-27.087,21.635A85.2,85.2,0,0,0,131.446,215.7a160.421,160.421,0,0,0-4.327,37.558v32.452H85.71v43.724h41.43V504.287h54.649V329.328h50.538V285.6H181.789Z" transform="translate(112.815 -69.077)" fill="#fff"/>
    <path id="Path_1562" data-name="Path 1562" d="M540.286,193.59A72.843,72.843,0,0,0,519.56,204a95.6,95.6,0,0,0-30.548,37.082H487.93V197.463H425.19V459.242h65.445V319.071a91.367,91.367,0,0,1,2.726-19.082,69.947,69.947,0,0,1,10.363-23.452,65.618,65.618,0,0,1,21.267-19.644,54.435,54.435,0,0,1,16.464-6.231,54.086,54.086,0,0,1-1.19-57.072Z" transform="translate(507.788 -23.771)" fill="#fff"/>
    <path id="Path_1563" data-name="Path 1563" d="M471.06,274.165V339.35a87.9,87.9,0,0,1-3.678,25.053A69.23,69.23,0,0,1,456.565,386.3a55.342,55.342,0,0,1-18.454,15.555A54.54,54.54,0,0,1,412,407.91q-15.274,0-24.534-6.317a45.432,45.432,0,0,1-14.5-16.1,62.31,62.31,0,0,1-6.858-21.894,178.311,178.311,0,0,1-1.579-23.106V200.11H301.25V358.346a137.981,137.981,0,0,0,5.257,37.969A92.9,92.9,0,0,0,323.123,429a83.857,83.857,0,0,0,29.012,22.954q17.654,8.654,42.469,8.654,28.471,0,49.305-14.5t29.272-33.49h1.06v40.608h60.123V274.49a52.507,52.507,0,0,1-63.3-.324Z" transform="translate(363.588 -16.186)" fill="#fff"/>
    <path id="Path_1564" data-name="Path 1564" d="M243.609,238.11a33.17,33.17,0,1,1-.007,0Z" transform="translate(257.888 28.026)" fill="#35f2bd"/>
    <path id="Path_1565" data-name="Path 1565" d="M299.769,189.84a137.3,137.3,0,1,0,.014,0Zm0,218.034a79.74,79.74,0,1,1,.007,0Z" transform="translate(201.727 -28.134)" fill="#fff"/>
    <path id="Path_1566" data-name="Path 1566" d="M93.121,154.87a99.627,99.627,0,0,1,43.507,11.25,97.94,97.94,0,0,1,23.8,17.308c.714.692,1.406,1.428,2.163,2.163.26.26.238.411,0,.649q-4.024,3.764-7.983,7.572c-.325.325-.476.216-.736,0a87.187,87.187,0,0,0-47.207-25.486,84.915,84.915,0,0,0-14.8-1.471,87.469,87.469,0,0,0-37.276,7.7,86.538,86.538,0,0,0-24.1,16.139c-.281.26-.411.281-.692,0-2.51-2.661-5.041-5.344-7.572-7.983-.346-.346-.151-.5,0-.736a99.534,99.534,0,0,1,70.832-27Z" transform="translate(38.727 -68.821)" fill="#fff"/>
    <path id="Path_1567" data-name="Path 1567" d="M132.636,190.043l-.368.368c-2.661,2.531-5.344,5.063-8,7.637-.368.324-.476.108-.692,0a59.973,59.973,0,0,0-12.7-10.168,58.76,58.76,0,0,0-22.587-7.767,59.538,59.538,0,0,0-38.942,8.07,57.742,57.742,0,0,0-10.017,7.572c-.346.325-.5.281-.779,0q-3.7-3.959-7.464-7.853c-.346-.368-.26-.519,0-.822a71.4,71.4,0,0,1,32.885-17.546A70.206,70.206,0,0,1,84.78,167.8a71.913,71.913,0,0,1,47.445,21.916,3,3,0,0,0,.411.325Z" transform="translate(48.993 -53.953)" fill="#fff"/>
    <path id="Path_1568" data-name="Path 1568" d="M71.295,180.409a44.2,44.2,0,0,1,29.921,12.656c.389.389,1.038.757,1.017,1.168s-.671.757-1.06,1.125l-7.031,6.707c-.346.346-.5.325-.844,0a32.452,32.452,0,0,0-45.216-1.1c-.3.281-.454.281-.736,0-2.488-2.639-4.976-5.279-7.507-7.9-.3-.324-.281-.5,0-.779a44.156,44.156,0,0,1,21.635-11.012,42.664,42.664,0,0,1,9.822-.865Z" transform="translate(59.19 -39.126)" fill="#fff"/>
  </g>
</svg>
