<svg xmlns="http://www.w3.org/2000/svg" width="150" height="82" viewBox="0 0 150 82">
  <g id="Group_603" data-name="Group 603" transform="translate(-1192 -256)">
    <text id="Welcome_to" data-name="Welcome to" transform="translate(1267 282)" fill="#182427" font-size="24" font-family="SegoeUI, Segoe UI"><tspan x="-63.492" y="0">Welcome to</tspan></text>
    <g id="Group_320" data-name="Group 320" transform="translate(1085 -36.579)">
      <path id="Path_1527" data-name="Path 1527" d="M247.11,291.677a5.683,5.683,0,0,1,1.634,3.989q0,1.915-2.36,4.317a14.146,14.146,0,0,1-4.187,3.049l-4.984-5.515a8.66,8.66,0,0,0,4.286-1.622,4.561,4.561,0,0,0,2.326-3.7q0-1.1-1.461-1.881a5.06,5.06,0,0,0-2.492-.715,8.893,8.893,0,0,0-5.483,2.4q-5.949,4.866-5.947,10.769v13.758l-6.381-3.244V289.274h6.381v2.466q1.431-1.392,5.932-2.92a14.077,14.077,0,0,1,4.535-.745,10.8,10.8,0,0,1,8.2,3.6" transform="translate(-47.986 50.659)" fill="#182427"/>
      <path id="Path_1528" data-name="Path 1528" d="M328.34,287.855h5.581v28.058L328.34,312.9Z" transform="translate(-121.899 50.811)" fill="#182427"/>
      <path id="Path_1526" data-name="Path 1526" d="M150,261.505v3.923H120.839v26.345a3.779,3.779,0,0,0,.718,2.161,2.174,2.174,0,0,0,1.833,1.144q4.877,0,4.876-10.07l6.579,3.759q-3.764,8.336-11.652,8.305a8.041,8.041,0,0,1-7.133-4.189,6.793,6.793,0,0,1-1.115-3.6V265.428H42.483v8.466a58.613,58.613,0,0,1,6.318-2.909,16.754,16.754,0,0,1,4.352-.49,10.614,10.614,0,0,1,6.252,1.928,6.419,6.419,0,0,1,3.076,5.488q0,4.545-5.2,6.6a10.456,10.456,0,0,1-3.727.847l7.573,9.235-4.146,3L45.3,283.733l2.161-4.48a13.3,13.3,0,0,0,3.633.49,7.431,7.431,0,0,0,4.549-1.308,4.765,4.765,0,0,0,2-4.116q0-2.615-3.715-2.615-2.609,0-5.54,2.521a21.949,21.949,0,0,0-3.812,4.359,9.993,9.993,0,0,0-2.088,5.279V297.6l-5.694-2.527V265.428H30.21v12.422a19.714,19.714,0,0,0-5.564-1.961,26.747,26.747,0,0,0-5.891-.784,21.487,21.487,0,0,0-10.049,2.125q-2.291,1.208-2.291,3.172,0,2.615,2.752,2.615a13.405,13.405,0,0,0,4.352-.981q1.736-.622,4.452-1.571a14.27,14.27,0,0,1,4.058-.394q5.664,0,8.446,3.5a6.066,6.066,0,0,1,1.339,3.923q0,5.2-6.546,8.172a14.814,14.814,0,0,1-5.17,1.407q2.355,2.352,4.485,2.352a6.123,6.123,0,0,0,1.473-.194l3.3,5.394q-1.014.881-4.155.881a5.945,5.945,0,0,1-4.321-1.731,21.464,21.464,0,0,1-2.682-3.956q-1.477-2.583-2.458-2.615-6.055-.163-9.327-2.191a3.933,3.933,0,0,1-2.061-3.5q0-2.747,3.273-2.748,1.209,0,5.058,1.88a15.248,15.248,0,0,0,6.33,1.88,19.334,19.334,0,0,0,9.33-2.352q2.127-1.144,2.127-2.812,0-2.484-3.927-2.485a53.2,53.2,0,0,0-7.824,1.765,28.24,28.24,0,0,1-4.779,1.047q-5.2,0-8.573-4.9a8.7,8.7,0,0,1-1.636-5.067q-.036-5.525,7.561-7.455a24.1,24.1,0,0,1,5.858-.784,37.329,37.329,0,0,1,8.9,1.538v-5.59H0v-3.923Z" transform="translate(107 69.074)" fill="#182427"/>
      <path id="Path_1529" data-name="Path 1529" d="M464.53,287.855h5.581v28.058L464.53,312.9Z" transform="translate(-216.901 50.811)" fill="#182427"/>
    </g>
  </g>
</svg>
